<svg width="20" height="20" fill="none" xmlns="http://www.w3.org/2000/svg"><path opacity=".6" d="M12.7 14.306a.546.546 0 01-.546-.531c-.007-.287.237-.524.54-.53h.006c.31 0 .56.237.56.53 0 .294-.25.531-.56.531zm-2.687-2.3a.534.534 0 01-.566-.5.55.55 0 01.54-.537c.296 0 .54.22.546.5.014.288-.223.525-.52.537zm0 2.269a.534.534 0 01-.566-.5.55.55 0 01.54-.537c.296 0 .54.219.546.5.014.288-.223.525-.52.537zm-2.707-2.269a.534.534 0 01-.566-.5.55.55 0 01.54-.537c.296 0 .54.22.547.5.013.288-.224.525-.52.537zM7.3 14.275a.534.534 0 01-.567-.5.55.55 0 01.54-.537c.297 0 .54.219.547.5.013.288-.224.525-.52.537zm4.86-2.774c0-.288.237-.52.54-.525.297 0 .534.224.547.5a.528.528 0 01-.527.53c-.303.006-.553-.212-.56-.5v-.005zM4 8.786v4.758c0 1.975 1.33 3.206 3.418 3.206h5.157c2.108 0 3.425-1.206 3.425-3.168V8.786H4z" fill="#4285F7"/><path opacity=".4" d="M4.002 8.786c.009-.367.042-1.095.104-1.33.316-1.318 1.39-2.155 2.924-2.275h5.94c1.522.126 2.609.969 2.925 2.275.061.228.094.962.103 1.33H4.002z" fill="#4285F7"/><path d="M7.536 7.119c.29 0 .508-.206.508-.481V4.732c0-.276-.218-.482-.508-.482-.29 0-.507.206-.507.482v1.905c0 .276.218.482.507.482zm4.927 0c.283 0 .507-.206.507-.481V4.732c0-.276-.224-.482-.507-.482-.29 0-.507.206-.507.482v1.905c0 .276.217.482.507.482z" fill="#4285F7"/></svg>