<svg width="20" height="20" fill="none" xmlns="http://www.w3.org/2000/svg"><g opacity=".5" fill="#D30A44"><path d="M8.875 10a1.125 1.125 0 112.25 0 1.125 1.125 0 01-2.25 0z"/><path fill-rule="evenodd" clip-rule="evenodd" d="M7.175 6.798C7.961 6.154 8.93 5.625 10 5.625c1.07 0 2.038.53 2.824 1.173.79.647 1.436 1.441 1.87 2.046l.036.05c.26.363.476.662.476 1.106 0 .444-.215.743-.476 1.106l-.036.05c-.434.605-1.08 1.4-1.87 2.046-.786.643-1.754 1.173-2.824 1.173-1.071 0-2.039-.53-2.825-1.173-.79-.647-1.436-1.441-1.87-2.046l-.036-.05c-.26-.363-.476-.662-.476-1.106 0-.444.215-.743.476-1.106l.036-.05c.434-.605 1.08-1.4 1.87-2.046zM10 8.125a1.875 1.875 0 100 3.75 1.875 1.875 0 000-3.75z"/></g></svg>