<svg width="20" height="20" fill="none" xmlns="http://www.w3.org/2000/svg"><path opacity=".4" d="M7.345 7.696v-.939c.007-1.398 1.19-2.54 2.654-2.54 1.119 0 2.123.69 2.489 1.72a.64.64 0 00.803.375.598.598 0 00.359-.306.587.587 0 00.029-.466C13.133 4.023 11.656 3 9.985 3 7.847 3 6.105 4.691 6.09 6.771v1.067l1.255-.142z" fill="#D30A44"/><path d="M12.987 7.698C14.65 7.698 16 9.006 16 10.62v3.456C16 15.691 14.65 17 12.987 17H7.013C5.35 17 4 15.691 4 14.077v-3.456c0-1.615 1.35-2.923 3.013-2.923h5.974zm-2.99 3.27a.615.615 0 00-.625.605v1.545c0 .34.28.612.624.612a.618.618 0 00.632-.612v-1.545a.617.617 0 00-.632-.605z" fill="#D30A44"/></svg>