<svg width="20" height="20" viewBox="0 0 20 20" fill="none" xmlns="http://www.w3.org/2000/svg">
<path opacity="0.6" d="M12.7003 14.3063C12.3974 14.3 12.1537 14.0625 12.1537 13.775C12.1471 13.4875 12.3908 13.2506 12.6937 13.2444H12.7003C13.0099 13.2444 13.2602 13.4819 13.2602 13.775C13.2602 14.0688 13.0099 14.3063 12.7003 14.3063ZM10.0132 12.0063C9.71021 12.0194 9.45993 11.7938 9.44676 11.5069C9.44676 11.2194 9.68386 10.9819 9.98683 10.9688C10.2832 10.9688 10.5269 11.1881 10.5335 11.4688C10.5467 11.7569 10.3095 11.9944 10.0132 12.0063ZM10.0132 14.275C9.71021 14.2881 9.45993 14.0625 9.44676 13.775C9.44676 13.4875 9.68386 13.2506 9.98683 13.2375C10.2832 13.2375 10.5269 13.4569 10.5335 13.7381C10.5467 14.0256 10.3095 14.2631 10.0132 14.275ZM7.30626 12.0063C7.00329 12.0194 6.75302 11.7938 6.73985 11.5069C6.73985 11.2194 6.97695 10.9819 7.27991 10.9688C7.57629 10.9688 7.81998 11.1881 7.82656 11.4688C7.83974 11.7569 7.60263 11.9944 7.30626 12.0063ZM7.29967 14.275C6.99671 14.2881 6.74643 14.0625 6.73326 13.775C6.73326 13.4875 6.97036 13.2506 7.27333 13.2375C7.5697 13.2375 7.81339 13.4569 7.81998 13.7381C7.83315 14.0256 7.59605 14.2631 7.29967 14.275ZM12.1603 11.5006C12.1603 11.2131 12.3974 10.9819 12.7003 10.9756C12.9967 10.9756 13.2338 11.2 13.247 11.4756C13.2536 11.7631 13.0165 12.0006 12.7201 12.0063C12.4171 12.0125 12.1669 11.7938 12.1603 11.5069V11.5006ZM4 8.78564V13.5438C4 15.5188 5.33041 16.75 7.41822 16.75H12.5752C14.6828 16.75 16 15.5438 16 13.5819V8.78564H4Z" fill="#4285F7"/>
<path opacity="0.4" d="M4.00244 8.78553C4.011 8.41865 4.04393 7.69053 4.10584 7.45615C4.42198 6.13803 5.49553 5.30053 7.0301 5.18115H12.9708C14.4922 5.30678 15.5789 6.1499 15.8951 7.45615C15.9563 7.68428 15.9893 8.41803 15.9978 8.78553H4.00244Z" fill="#4285F7"/>
<path d="M7.53643 7.11875C7.82622 7.11875 8.04357 6.91313 8.04357 6.6375V4.73188C8.04357 4.45625 7.82622 4.25 7.53643 4.25C7.24664 4.25 7.0293 4.45625 7.0293 4.73188V6.6375C7.0293 6.91313 7.24664 7.11875 7.53643 7.11875Z" fill="#4285F7"/>
<path d="M12.4632 7.11875C12.7464 7.11875 12.9703 6.91313 12.9703 6.6375V4.73188C12.9703 4.45625 12.7464 4.25 12.4632 4.25C12.1734 4.25 11.9561 4.45625 11.9561 4.73188V6.6375C11.9561 6.91313 12.1734 7.11875 12.4632 7.11875Z" fill="#4285F7"/>
</svg>
