<svg width="20" height="20" viewBox="0 0 20 20" fill="none" xmlns="http://www.w3.org/2000/svg">
<g opacity="0.5">
<path d="M8.87451 10C8.87451 9.37868 9.37819 8.875 9.99951 8.875C10.6208 8.875 11.1245 9.37868 11.1245 10C11.1245 10.6213 10.6208 11.125 9.99951 11.125C9.37819 11.125 8.87451 10.6213 8.87451 10Z" fill="#D30A44"/>
<path fill-rule="evenodd" clip-rule="evenodd" d="M7.17538 6.79786C7.96114 6.1545 8.92904 5.625 9.99951 5.625C11.07 5.625 12.0379 6.1545 12.8237 6.79786C13.6137 7.44473 14.2597 8.23932 14.6938 8.84401L14.7296 8.8938C14.9909 9.25692 15.2061 9.55583 15.2061 10C15.2061 10.4442 14.9909 10.7431 14.7296 11.1062L14.6938 11.156C14.2597 11.7607 13.6137 12.5553 12.8237 13.2021C12.0379 13.8455 11.07 14.375 9.99951 14.375C8.92904 14.375 7.96114 13.8455 7.17538 13.2021C6.38533 12.5553 5.73932 11.7607 5.30522 11.156L5.26942 11.1062C5.00809 10.7431 4.79297 10.4442 4.79297 10C4.79297 9.55583 5.00809 9.25692 5.26942 8.8938L5.30522 8.84401C5.73932 8.23932 6.38533 7.44473 7.17538 6.79786ZM9.99951 8.125C8.96398 8.125 8.12451 8.96447 8.12451 10C8.12451 11.0355 8.96398 11.875 9.99951 11.875C11.035 11.875 11.8745 11.0355 11.8745 10C11.8745 8.96447 11.035 8.125 9.99951 8.125Z" fill="#D30A44"/>
</g>
</svg>
