<svg width="20" height="20" viewBox="0 0 20 20" fill="none" xmlns="http://www.w3.org/2000/svg">
<path opacity="0.4" d="M7.34507 7.69635V6.75708C7.35225 5.35931 8.53575 4.21757 9.99899 4.21757C11.1179 4.21757 12.1221 4.90637 12.4879 5.93679C12.6099 6.25683 12.9685 6.42312 13.2913 6.31249C13.4491 6.26309 13.5782 6.15177 13.6499 6.00567C13.7216 5.85956 13.736 5.69257 13.6786 5.53951C13.1335 4.02346 11.6559 3 9.98464 3C7.84717 3 6.10419 4.69138 6.08984 6.771V7.83759L7.34507 7.69635Z" fill="#D30A44"/>
<path d="M12.9867 7.69775C14.6508 7.69775 16 9.00647 16 10.6206V14.0771C16 15.6913 14.6508 17 12.9867 17H7.01327C5.34919 17 4 15.6913 4 14.0771V10.6206C4 9.00647 5.34919 7.69775 7.01327 7.69775H12.9867ZM9.99641 10.9678C9.65212 10.9678 9.37239 11.2392 9.37239 11.5731V13.1177C9.37239 13.4586 9.65212 13.73 9.99641 13.73C10.3479 13.73 10.6276 13.4586 10.6276 13.1177V11.5731C10.6276 11.2392 10.3479 10.9678 9.99641 10.9678Z" fill="#D30A44"/>
</svg>
